<svg width="280" height="60" viewBox="0 0 280 60" fill="none" xmlns="http://www.w3.org/2000/svg">
<path d="M12.01 8.76C12.67 8.76 13.21 8.55 13.64 8.12C13.67 8.08 13.71 8.01 13.76 7.89C13.81 7.77 13.92 7.72 14.09 7.72C14.27 7.72 14.36 7.77 14.36 7.89V11.75C14.36 11.86 14.28 11.92 14.12 11.92C13.97 11.92 13.87 11.9 13.84 11.87C13.81 11.83 13.78 11.77 13.75 11.7C13.72 11.63 13.64 11.54 13.53 11.43C13.41 11.32 13.2 11.21 12.9 11.09C12.61 10.98 12.31 10.92 12.01 10.92H3.61V19.65H12.45C13.46 19.65 14.07 19.57 14.29 19.4C14.52 19.23 14.68 19.07 14.78 18.93C14.87 18.8 14.94 18.73 15 18.73C15.05 18.73 15.14 18.76 15.26 18.81C15.39 18.85 15.45 18.89 15.45 18.92C15.45 18.95 15.39 19.12 15.26 19.43L14.84 20.51C14.68 20.93 14.57 21.24 14.51 21.45C14.46 21.66 14.38 21.78 14.28 21.81H0.17C0.0500001 21.81 0 21.73 0 21.58C0 21.42 0.0100001 21.33 0.0400001 21.29C0.0800001 21.26 0.14 21.23 0.22 21.2C0.29 21.17 0.38 21.1 0.48 21C0.59 20.88 0.72 20.68 0.84 20.39C0.97 20.09 1.03 19.79 1.03 19.48V2.33C1.03 1.67 0.81 1.13 0.39 0.719999C0.36 0.679999 0.28 0.63 0.17 0.58C0.0500001 0.52 0 0.42 0 0.25C0 0.08 0.0500001 0 0.17 0H14.28C14.37 0 14.45 0.11 14.51 0.34C14.57 0.56 14.68 0.869999 14.84 1.28L15.26 2.36C15.39 2.67 15.45 2.85 15.45 2.89C15.45 2.92 15.39 2.96 15.26 3C15.14 3.04 15.05 3.06 15.01 3.06C14.97 3.06 14.92 3.04 14.87 3C14.83 2.95 14.78 2.88 14.72 2.79C14.66 2.71 14.52 2.59 14.29 2.42C14.07 2.24 13.46 2.15 12.45 2.15H3.61V8.76H12.01Z" fill="white"/>
<path d="M18.0264 19.78C18.0264 19.78 20.9464 13.24 26.7964 0.15C26.8364 0.0499996 27.0464 0 27.4364 0C27.8264 0 28.0464 0.0499996 28.1064 0.15L37.1364 19.78C37.4864 20.58 37.8364 21.06 38.1664 21.22C38.2864 21.28 38.3364 21.4 38.3364 21.56C38.3364 21.73 38.2864 21.81 38.1664 21.81H33.3364C33.2264 21.81 33.1664 21.73 33.1664 21.58C33.1664 21.42 33.1864 21.33 33.2264 21.29C33.2664 21.26 33.3264 21.23 33.4064 21.2C33.4764 21.17 33.5364 21.13 33.5764 21.09C33.9064 20.76 34.0764 20.45 34.0764 20.15C34.0764 19.86 34.0464 19.62 33.9764 19.43L32.0564 14.87H22.4464L20.5564 19.43C20.4964 19.62 20.4664 19.77 20.4664 19.87V20.01C20.4664 20.02 20.4664 20.04 20.4664 20.04C20.4664 20.41 20.6264 20.76 20.9664 21.09C21.0064 21.12 21.0864 21.17 21.1964 21.23C21.3164 21.29 21.3764 21.4 21.3764 21.56C21.3764 21.73 21.3164 21.81 21.1964 21.81H16.9964C16.8764 21.81 16.8264 21.73 16.8264 21.58C16.8264 21.42 16.8464 21.33 16.8864 21.29C16.9264 21.26 16.9864 21.23 17.0564 21.2C17.3464 21.08 17.6764 20.6 18.0264 19.78ZM23.4064 12.75C23.3764 12.78 23.3764 12.82 23.3864 12.86C23.3964 12.9 23.4064 12.92 23.4364 12.92H31.0464C31.0764 12.92 31.0864 12.9 31.0864 12.86C31.0964 12.82 31.0964 12.78 31.0864 12.75L27.2264 4.39H27.1364L23.4064 12.75Z" fill="white"/>
<path d="M61.4095 0C61.5095 0 61.5895 0.11 61.6495 0.34C61.7095 0.56 61.8195 0.869999 61.9795 1.28C61.9795 1.28 62.1195 1.64 62.3995 2.36C62.5195 2.67 62.5895 2.85 62.5895 2.89C62.5895 2.92 62.5195 2.96 62.3995 3C62.2695 3.04 62.1895 3.06 62.1495 3.06C62.0895 3.06 62.0095 3 61.9095 2.87C61.8195 2.75 61.6595 2.6 61.4295 2.42C61.2095 2.24 60.5895 2.15 59.5895 2.15H52.0995V19.48C52.0995 20.13 52.3095 20.67 52.7295 21.09C52.7695 21.12 52.8395 21.17 52.9595 21.23C53.0695 21.29 53.1295 21.4 53.1295 21.56C53.1295 21.73 53.0695 21.81 52.9595 21.81H48.6495C48.5295 21.81 48.4795 21.73 48.4795 21.58C48.4795 21.42 48.4895 21.33 48.5195 21.29C48.5595 21.26 48.6195 21.23 48.6995 21.2C48.7695 21.17 48.8595 21.1 48.9595 21C49.0695 20.88 49.1995 20.68 49.3195 20.39C49.4495 20.09 49.5095 19.79 49.5095 19.48V2.15H42.0095C40.7595 2.15 39.9995 2.37 39.7395 2.79C39.6195 2.97 39.5295 3.06 39.4795 3.06C39.4195 3.06 39.3295 3.04 39.1995 3C39.0695 2.96 39.0095 2.92 39.0095 2.89C39.0095 2.85 39.0695 2.67 39.1995 2.36L39.6295 1.28C39.7895 0.879999 39.8895 0.579999 39.9495 0.369999C40.0095 0.169999 40.0895 0.04 40.1795 0H61.4095Z" fill="white"/>
<path d="M74.9092 2.84V19.48C74.9092 20.13 75.1192 20.67 75.5492 21.09C75.5792 21.12 75.6492 21.17 75.7692 21.23C75.8792 21.29 75.9392 21.4 75.9392 21.56C75.9392 21.73 75.8792 21.81 75.7692 21.81H71.4492C71.3392 21.81 71.2792 21.73 71.2792 21.58C71.2792 21.42 71.2992 21.33 71.3392 21.29C71.3792 21.26 71.4392 21.23 71.4992 21.2C71.5692 21.17 71.6592 21.1 71.7792 21C71.8892 20.88 72.0192 20.68 72.1392 20.39C72.2692 20.09 72.3292 19.79 72.3292 19.48V2.33C72.3292 1.67 72.1092 1.13 71.6892 0.719999C71.6392 0.679999 71.5692 0.63 71.4492 0.58C71.3392 0.52 71.2792 0.42 71.2792 0.25C71.2792 0.08 71.3392 0 71.4492 0H78.7292C79.9292 0 81.0492 0.229999 82.0792 0.699999C83.1092 1.16 83.9492 1.85 84.5892 2.76C85.2492 3.67 85.5792 4.76 85.5792 6.01C85.5792 7.27 85.2892 8.33 84.6992 9.18C83.5492 10.83 81.1592 11.65 77.5492 11.65H75.7492C75.6292 11.65 75.5792 11.53 75.5792 11.28V10.15C75.5792 9.9 75.6292 9.78 75.7492 9.78H77.5492C81.2092 9.78 83.0492 8.48 83.0492 5.87C83.0492 4.93 82.7692 4.18 82.2192 3.65C81.3092 2.78 80.1592 2.28 78.7792 2.15H75.7192C75.5192 2.15 75.3292 2.23 75.1592 2.39C74.9892 2.54 74.9092 2.68 74.9092 2.84Z" fill="white"/>
<path d="M92.3132 2.16998C92.1332 2.16998 91.9732 2.23998 91.8432 2.36998C91.7032 2.49998 91.6432 2.64998 91.6432 2.83998V19.48C91.6432 20.13 91.8532 20.67 92.2832 21.09C92.3132 21.12 92.3832 21.17 92.5032 21.23C92.6132 21.29 92.6732 21.4 92.6732 21.56C92.6732 21.73 92.6132 21.81 92.5032 21.81H88.1832C88.0732 21.81 88.0132 21.73 88.0132 21.58C88.0132 21.42 88.0332 21.33 88.0732 21.29C88.1132 21.26 88.1732 21.23 88.2332 21.2C88.3032 21.17 88.3932 21.1 88.5132 21C88.6232 20.88 88.7532 20.68 88.8732 20.39C89.0032 20.09 89.0632 19.79 89.0632 19.48V2.32998C89.0632 1.66998 88.8432 1.12998 88.4232 0.719978C88.3732 0.679978 88.3032 0.629979 88.1832 0.579979C88.0732 0.519979 88.0132 0.419979 88.0132 0.259979C88.0132 0.0999793 88.0732 0.00997925 88.1832 0.00997925H95.0132C96.9732 0.0399792 98.6132 0.459978 99.9232 1.27998C101.243 2.09998 101.903 3.42998 101.903 5.27998C101.903 7.45998 100.773 9.04998 98.5032 10.06C97.6632 10.43 97.0332 10.65 96.5932 10.68C96.1532 10.73 95.9332 10.76 95.9332 10.78L96.3732 11.01C96.5532 11.13 96.9132 11.4 97.4532 11.84C98.0032 12.27 98.5532 12.76 99.0932 13.31C99.6332 13.85 100.283 14.61 101.033 15.58C101.783 16.54 102.333 17.34 102.683 17.95L103.783 19.89C104.173 20.62 104.503 21.02 104.763 21.09C105.033 21.17 105.173 21.31 105.173 21.51C105.173 21.71 105.113 21.81 105.003 21.81H100.683C100.573 21.81 100.513 21.73 100.513 21.58C100.513 21.42 100.533 21.33 100.563 21.29C100.603 21.26 100.663 21.23 100.733 21.2C100.803 21.17 100.863 21.13 100.903 21.08C100.953 21.02 100.983 20.92 100.983 20.76C100.983 20.61 100.963 20.49 100.923 20.4C100.273 18.73 99.3932 17.13 98.2632 15.62C96.1932 12.82 94.4032 11.32 92.9032 11.11C92.6832 11.07 92.5732 11.04 92.5732 11.03C92.5632 10.87 92.5632 10.66 92.5632 10.39V9.57998C92.5632 9.47998 92.6032 9.42998 92.6832 9.42998C94.8732 9.42998 96.5832 8.99998 97.8132 8.11998C98.7532 7.45998 99.2132 6.55998 99.2132 5.42998C99.2132 4.29998 98.7632 3.46998 97.8632 2.94998C96.9532 2.42998 95.9232 2.16998 94.7832 2.16998H92.3132Z" fill="white"/>
<path d="M107.039 19.78C107.039 19.78 109.959 13.24 115.809 0.15C115.849 0.0499996 116.059 0 116.449 0C116.839 0 117.059 0.0499996 117.119 0.15L126.149 19.78C126.499 20.58 126.849 21.06 127.179 21.22C127.299 21.28 127.349 21.4 127.349 21.56C127.349 21.73 127.299 21.81 127.179 21.81H122.349C122.239 21.81 122.179 21.73 122.179 21.58C122.179 21.42 122.199 21.33 122.239 21.29C122.279 21.26 122.339 21.23 122.419 21.2C122.489 21.17 122.549 21.13 122.589 21.09C122.919 20.76 123.089 20.45 123.089 20.15C123.089 19.86 123.059 19.62 122.989 19.43L121.069 14.87H111.459L109.569 19.43C109.509 19.62 109.479 19.77 109.479 19.87V20.01C109.479 20.02 109.479 20.04 109.479 20.04C109.479 20.41 109.639 20.76 109.979 21.09C110.019 21.12 110.099 21.17 110.209 21.23C110.329 21.29 110.389 21.4 110.389 21.56C110.389 21.73 110.329 21.81 110.209 21.81H106.009C105.889 21.81 105.839 21.73 105.839 21.58C105.839 21.42 105.859 21.33 105.899 21.29C105.939 21.26 105.999 21.23 106.069 21.2C106.359 21.08 106.689 20.6 107.039 19.78ZM112.419 12.75C112.389 12.78 112.389 12.82 112.399 12.86C112.409 12.9 112.419 12.92 112.449 12.92H120.059C120.089 12.92 120.099 12.9 120.099 12.86C120.109 12.82 120.109 12.78 120.099 12.75L116.239 4.39H116.149L112.419 12.75Z" fill="white"/>
<path d="M137.602 12.61L129.722 2.03C129.482 1.7 129.212 1.4 128.912 1.14C128.602 0.869999 128.442 0.719999 128.412 0.699999C128.382 0.669999 128.302 0.63 128.192 0.58C128.072 0.52 128.022 0.42 128.022 0.25C128.022 0.08 128.072 0 128.192 0H133.022C133.132 0 133.192 0.0799995 133.192 0.23C133.192 0.38 133.172 0.47 133.132 0.5C133.082 0.53 133.032 0.569999 132.972 0.609999C132.642 0.739999 132.492 0.96 132.532 1.25C132.582 1.54 132.782 1.91 133.132 2.36L139.002 10.22H139.112L145.142 2.36C145.712 1.64 145.992 1.21 145.972 1.06C145.952 0.919999 145.912 0.81 145.852 0.75C145.782 0.68 145.692 0.63 145.582 0.58C145.462 0.52 145.412 0.42 145.412 0.25C145.412 0.08 145.462 0 145.582 0H149.782C149.902 0 149.962 0.0799995 149.962 0.23C149.962 0.38 149.932 0.47 149.892 0.5C149.852 0.53 149.792 0.56 149.722 0.59C149.652 0.62 149.602 0.65 149.572 0.68C149.542 0.71 149.482 0.76 149.362 0.84L149.002 1.12C148.652 1.4 148.352 1.71 148.132 2.03L140.352 12.12V19.48C140.352 20.13 140.562 20.67 140.992 21.09C141.022 21.12 141.092 21.17 141.212 21.23C141.322 21.29 141.382 21.4 141.382 21.56C141.382 21.73 141.322 21.81 141.212 21.81H136.722C136.602 21.81 136.552 21.73 136.552 21.58C136.552 21.42 136.572 21.33 136.612 21.29C136.652 21.26 136.712 21.23 136.772 21.2C136.842 21.17 136.932 21.1 137.052 20.98C137.162 20.87 137.282 20.67 137.412 20.37C137.532 20.08 137.602 19.79 137.602 19.48V12.61Z" fill="white"/>
<path d="M179.839 0C179.939 0 180.019 0.11 180.079 0.34C180.139 0.56 180.249 0.869999 180.409 1.28C180.409 1.28 180.549 1.64 180.829 2.36C180.949 2.67 181.019 2.85 181.019 2.89C181.019 2.92 180.949 2.96 180.829 3C180.699 3.04 180.619 3.06 180.579 3.06C180.519 3.06 180.439 3 180.339 2.87C180.249 2.75 180.089 2.6 179.859 2.42C179.639 2.24 179.019 2.15 178.019 2.15H170.529V19.48C170.529 20.13 170.739 20.67 171.159 21.09C171.199 21.12 171.269 21.17 171.389 21.23C171.499 21.29 171.559 21.4 171.559 21.56C171.559 21.73 171.499 21.81 171.389 21.81H167.079C166.959 21.81 166.909 21.73 166.909 21.58C166.909 21.42 166.919 21.33 166.949 21.29C166.989 21.26 167.049 21.23 167.129 21.2C167.199 21.17 167.289 21.1 167.389 21C167.499 20.88 167.629 20.68 167.749 20.39C167.879 20.09 167.939 19.79 167.939 19.48V2.15H160.439C159.189 2.15 158.429 2.37 158.169 2.79C158.049 2.97 157.959 3.06 157.909 3.06C157.849 3.06 157.759 3.04 157.629 3C157.499 2.96 157.439 2.92 157.439 2.89C157.439 2.85 157.499 2.67 157.629 2.36L158.059 1.28C158.219 0.879999 158.319 0.579999 158.379 0.369999C158.439 0.169999 158.519 0.04 158.609 0H179.839Z" fill="white"/>
<path d="M187.188 2.16998C187.008 2.16998 186.848 2.23998 186.718 2.36998C186.578 2.49998 186.518 2.64998 186.518 2.83998V19.48C186.518 20.13 186.728 20.67 187.158 21.09C187.188 21.12 187.258 21.17 187.378 21.23C187.488 21.29 187.548 21.4 187.548 21.56C187.548 21.73 187.488 21.81 187.378 21.81H183.058C182.948 21.81 182.888 21.73 182.888 21.58C182.888 21.42 182.908 21.33 182.948 21.29C182.988 21.26 183.048 21.23 183.108 21.2C183.178 21.17 183.268 21.1 183.388 21C183.498 20.88 183.628 20.68 183.748 20.39C183.878 20.09 183.938 19.79 183.938 19.48V2.32998C183.938 1.66998 183.718 1.12998 183.298 0.719978C183.248 0.679978 183.178 0.629979 183.058 0.579979C182.948 0.519979 182.888 0.419979 182.888 0.259979C182.888 0.0999793 182.948 0.00997925 183.058 0.00997925H189.888C191.848 0.0399792 193.488 0.459978 194.798 1.27998C196.118 2.09998 196.778 3.42998 196.778 5.27998C196.778 7.45998 195.648 9.04998 193.378 10.06C192.538 10.43 191.908 10.65 191.468 10.68C191.028 10.73 190.808 10.76 190.808 10.78L191.248 11.01C191.428 11.13 191.788 11.4 192.328 11.84C192.878 12.27 193.428 12.76 193.968 13.31C194.508 13.85 195.158 14.61 195.908 15.58C196.658 16.54 197.208 17.34 197.558 17.95L198.658 19.89C199.048 20.62 199.378 21.02 199.638 21.09C199.908 21.17 200.048 21.31 200.048 21.51C200.048 21.71 199.988 21.81 199.878 21.81H195.558C195.448 21.81 195.388 21.73 195.388 21.58C195.388 21.42 195.408 21.33 195.438 21.29C195.478 21.26 195.538 21.23 195.608 21.2C195.678 21.17 195.738 21.13 195.778 21.08C195.828 21.02 195.858 20.92 195.858 20.76C195.858 20.61 195.838 20.49 195.798 20.4C195.148 18.73 194.268 17.13 193.138 15.62C191.068 12.82 189.278 11.32 187.778 11.11C187.558 11.07 187.448 11.04 187.448 11.03C187.438 10.87 187.438 10.66 187.438 10.39V9.57998C187.438 9.47998 187.478 9.42998 187.558 9.42998C189.748 9.42998 191.458 8.99998 192.688 8.11998C193.628 7.45998 194.088 6.55998 194.088 5.42998C194.088 4.29998 193.638 3.46998 192.738 2.94998C191.828 2.42998 190.798 2.16998 189.658 2.16998H187.188Z" fill="white"/>
<path d="M201.913 19.78C201.913 19.78 204.833 13.24 210.683 0.15C210.723 0.0499996 210.933 0 211.323 0C211.713 0 211.933 0.0499996 211.993 0.15L221.023 19.78C221.373 20.58 221.723 21.06 222.053 21.22C222.173 21.28 222.223 21.4 222.223 21.56C222.223 21.73 222.173 21.81 222.053 21.81H217.223C217.113 21.81 217.053 21.73 217.053 21.58C217.053 21.42 217.073 21.33 217.113 21.29C217.153 21.26 217.213 21.23 217.293 21.2C217.363 21.17 217.423 21.13 217.463 21.09C217.793 20.76 217.963 20.45 217.963 20.15C217.963 19.86 217.933 19.62 217.863 19.43L215.943 14.87H206.333L204.443 19.43C204.383 19.62 204.353 19.77 204.353 19.87V20.01C204.353 20.02 204.353 20.04 204.353 20.04C204.353 20.41 204.513 20.76 204.853 21.09C204.893 21.12 204.973 21.17 205.083 21.23C205.203 21.29 205.263 21.4 205.263 21.56C205.263 21.73 205.203 21.81 205.083 21.81H200.883C200.763 21.81 200.713 21.73 200.713 21.58C200.713 21.42 200.733 21.33 200.773 21.29C200.813 21.26 200.873 21.23 200.943 21.2C201.233 21.08 201.563 20.6 201.913 19.78ZM207.293 12.75C207.263 12.78 207.263 12.82 207.273 12.86C207.283 12.9 207.293 12.92 207.323 12.92H214.933C214.963 12.92 214.973 12.9 214.973 12.86C214.983 12.82 214.983 12.78 214.973 12.75L211.113 4.39H211.023L207.293 12.75Z" fill="white"/>
<path d="M234.096 17.42L240.676 2.36C240.896 1.74 240.756 1.2 240.266 0.719999C240.236 0.679999 240.156 0.63 240.036 0.58C239.916 0.52 239.866 0.42 239.866 0.25C239.866 0.08 239.926 0 240.046 0H244.236C244.356 0 244.406 0.0799995 244.406 0.23C244.406 0.38 244.386 0.47 244.346 0.5C244.306 0.53 244.256 0.569999 244.196 0.609999C243.896 0.739999 243.566 1.22 243.206 2.03L234.446 21.65C234.396 21.76 234.176 21.81 233.786 21.81C233.396 21.81 233.176 21.76 233.126 21.65L231.116 17.51L227.626 9.98L224.096 2.03C223.756 1.22 223.406 0.73 223.066 0.58C222.946 0.52 222.896 0.42 222.896 0.25C222.896 0.08 222.946 0 223.066 0H227.896C228.006 0 228.066 0.0799995 228.066 0.23C228.066 0.38 228.046 0.47 228.006 0.5C227.956 0.53 227.906 0.56 227.836 0.59C227.766 0.62 227.716 0.669999 227.676 0.719999C227.186 1.2 227.046 1.74 227.256 2.36L234.006 17.42H234.096Z" fill="white"/>
<path d="M258.169 8.76C258.829 8.76 259.369 8.55 259.799 8.12C259.829 8.08 259.869 8.01 259.919 7.89C259.969 7.77 260.079 7.72 260.249 7.72C260.429 7.72 260.519 7.77 260.519 7.89V11.75C260.519 11.86 260.439 11.92 260.279 11.92C260.129 11.92 260.029 11.9 259.999 11.87C259.969 11.83 259.939 11.77 259.909 11.7C259.879 11.63 259.799 11.54 259.689 11.43C259.569 11.32 259.359 11.21 259.059 11.09C258.769 10.98 258.469 10.92 258.169 10.92H249.769V19.65H258.609C259.619 19.65 260.229 19.57 260.449 19.4C260.679 19.23 260.839 19.07 260.939 18.93C261.029 18.8 261.099 18.73 261.159 18.73C261.209 18.73 261.299 18.76 261.419 18.81C261.549 18.85 261.609 18.89 261.609 18.92C261.609 18.95 261.549 19.12 261.419 19.43L260.999 20.51C260.839 20.93 260.729 21.24 260.669 21.45C260.619 21.66 260.539 21.78 260.439 21.81H246.329C246.209 21.81 246.159 21.73 246.159 21.58C246.159 21.42 246.169 21.33 246.199 21.29C246.239 21.26 246.299 21.23 246.379 21.2C246.449 21.17 246.539 21.1 246.639 21C246.749 20.88 246.879 20.68 246.999 20.39C247.129 20.09 247.189 19.79 247.189 19.48V2.33C247.189 1.67 246.969 1.13 246.549 0.719999C246.519 0.679999 246.439 0.63 246.329 0.58C246.209 0.52 246.159 0.42 246.159 0.25C246.159 0.08 246.209 0 246.329 0H260.439C260.529 0 260.609 0.11 260.669 0.34C260.729 0.56 260.839 0.869999 260.999 1.28L261.419 2.36C261.549 2.67 261.609 2.85 261.609 2.89C261.609 2.92 261.549 2.96 261.419 3C261.299 3.04 261.209 3.06 261.169 3.06C261.129 3.06 261.079 3.04 261.029 3C260.989 2.95 260.939 2.88 260.879 2.79C260.819 2.71 260.679 2.59 260.449 2.42C260.229 2.24 259.619 2.15 258.609 2.15H249.769V8.76H258.169Z" fill="white"/>
<path d="M265.236 19.48V2.33C265.236 1.67 265.016 1.13 264.596 0.719999C264.546 0.679999 264.476 0.63 264.356 0.58C264.246 0.52 264.186 0.42 264.186 0.25C264.186 0.08 264.246 0 264.356 0H268.676C268.786 0 268.846 0.0799995 268.846 0.23C268.846 0.38 268.816 0.47 268.786 0.5C268.746 0.53 268.696 0.56 268.626 0.59C268.546 0.62 268.456 0.699999 268.346 0.809999C268.236 0.929999 268.126 1.13 267.996 1.43C267.876 1.73 267.816 2.02 267.816 2.33V19.65H276.656C277.656 19.65 278.306 19.54 278.606 19.31C278.776 19.2 278.896 19.08 278.986 18.95C279.076 18.82 279.146 18.75 279.186 18.75C279.236 18.74 279.326 18.76 279.456 18.81C279.586 18.85 279.656 18.89 279.656 18.92C279.656 18.95 279.596 19.12 279.466 19.43L279.046 20.51C278.876 20.92 278.766 21.23 278.706 21.43C278.646 21.65 278.576 21.77 278.486 21.81H264.356C264.246 21.81 264.186 21.73 264.186 21.58C264.186 21.42 264.206 21.33 264.246 21.29C264.286 21.26 264.346 21.23 264.406 21.2C264.476 21.17 264.566 21.1 264.686 21C264.796 20.88 264.926 20.68 265.046 20.39C265.176 20.09 265.236 19.79 265.236 19.48Z" fill="white"/>
<path d="M84.7955 41.3605H84.6855C83.9555 43.0805 82.8055 45.9705 81.2155 50.0305C79.6455 54.0905 78.3655 57.2105 77.3955 59.3905C77.3455 59.5005 77.1255 59.5505 76.7355 59.5505C76.3455 59.5505 76.1255 59.5005 76.0755 59.3905C76.0755 59.3905 75.4055 58.0105 74.0655 55.2505L70.5755 47.7205C70.5755 47.7205 69.3955 45.0705 67.0455 39.7705C66.7055 38.9605 66.3555 38.4705 66.0155 38.3205C65.8955 38.2605 65.8455 38.1605 65.8455 37.9905C65.8455 37.8205 65.8955 37.7405 66.0155 37.7405H70.8455C70.9555 37.7405 71.0155 37.8205 71.0155 37.9705C71.0155 38.1205 70.9955 38.2105 70.9555 38.2405C70.9055 38.2705 70.8555 38.3005 70.7855 38.3305C70.7155 38.3605 70.6655 38.4105 70.6255 38.4605C70.1355 38.9405 69.9955 39.4805 70.2055 40.1005L76.9555 55.1605H77.0455L82.8455 40.1005C82.8655 40.0305 82.8955 39.9405 82.9555 39.8005C83.0055 39.6605 83.0355 39.5605 83.0455 39.5005C83.0655 39.4405 83.0955 39.3605 83.1255 39.2505C83.1655 39.1405 83.1855 39.0605 83.1855 39.0005V38.8005C83.1855 38.5905 83.0955 38.4505 82.9055 38.3605C82.7255 38.2805 82.6455 38.1905 82.6455 38.1005C82.6455 37.8605 82.6955 37.7405 82.8155 37.7405H87.2155C87.3355 37.7405 87.3955 37.8205 87.3955 37.9705C87.3955 38.1205 87.3655 38.2105 87.3255 38.2405C87.2855 38.2705 87.2255 38.3005 87.1555 38.3305C87.0955 38.3605 87.0355 38.4105 86.9655 38.4705C86.9055 38.5305 86.8655 38.5905 86.8455 38.6705C86.8155 38.7605 86.8255 38.8605 86.8555 38.9905C86.8755 39.1705 86.9455 39.3905 87.0655 39.6705L87.2355 40.1005L93.9855 55.1605H94.0755L99.8955 40.1005C100.105 39.4805 99.9755 38.9405 99.4855 38.4605C99.4555 38.4205 99.3755 38.3705 99.2455 38.3205C99.1355 38.2605 99.0755 38.1605 99.0755 37.9905C99.0755 37.8205 99.1355 37.7405 99.2455 37.7405H103.455C103.565 37.7405 103.625 37.8205 103.625 37.9705C103.625 38.1205 103.605 38.2105 103.565 38.2405C103.515 38.2705 103.465 38.3105 103.405 38.3505C103.105 38.4805 102.775 38.9605 102.425 39.7705C101.465 41.9205 100.135 45.1805 98.4355 49.5305C96.7455 53.8905 95.4055 57.1705 94.4255 59.3905C94.3755 59.5005 94.1555 59.5505 93.7655 59.5505C93.3755 59.5505 93.1555 59.5005 93.1055 59.3905L90.0655 53.1005L84.7955 41.3605Z" fill="white"/>
<path d="M117.626 38.1005C117.736 38.1505 117.756 38.2405 117.686 38.3605L106.826 59.7105C106.756 59.8305 106.666 59.8705 106.556 59.8205L105.106 59.0805C104.986 59.0305 104.966 58.9405 105.046 58.8005L115.916 37.4605C115.986 37.3405 116.076 37.3105 116.186 37.3605L117.626 38.1005Z" fill="white"/>
<path d="M130.14 59.3905C129.86 59.3305 129.56 59.2505 129.24 59.1405C128.93 59.0405 128.73 58.9905 128.64 58.9905H128.48C128.17 58.9905 127.92 59.1705 127.76 59.5205C127.75 59.5405 127.74 59.5505 127.73 59.5505H127.34C127.28 59.5505 127.25 59.5305 127.24 59.4905L126.1 55.5505C126.06 55.3605 126.2 55.2705 126.51 55.2705C126.64 55.2705 126.72 55.3005 126.76 55.3505C126.8 55.4005 126.83 55.4405 126.85 55.4605C126.87 55.4705 126.92 55.5305 126.98 55.6305C128.14 57.0805 129.86 57.8005 132.12 57.8005C133.31 57.8005 134.31 57.4905 135.09 56.8605C135.88 56.2405 136.28 55.3205 136.28 54.1005C136.28 53.2805 136.14 52.6705 135.87 52.2705C135.61 51.8605 135.39 51.5605 135.23 51.3605C134.87 50.9205 134.03 50.3305 132.68 49.5705C131.34 48.8005 130.25 48.1105 129.42 47.5005C127.28 45.9705 126.21 44.3905 126.21 42.7705C126.21 41.1405 126.72 39.8905 127.73 39.0005C128.75 38.1105 130.1 37.6605 131.78 37.6605C132.72 37.6605 133.72 37.9205 134.76 38.4205C135.26 38.6705 135.62 38.8305 135.85 38.9105C136.08 38.9805 136.24 38.9405 136.32 38.7705C136.42 38.5905 136.47 38.5005 136.49 38.5005C136.89 38.4605 137.09 38.5305 137.09 38.6905L137.49 42.9705C137.49 43.0505 137.29 43.0805 136.89 43.0805C136.82 43.0805 136.77 43.0005 136.73 42.8505C136.45 41.9405 135.8 41.1905 134.79 40.6005C133.78 40.0005 132.77 39.6905 131.76 39.6905C129.6 39.6905 128.53 40.5805 128.53 42.3505C128.53 43.6405 129.69 44.9205 132.03 46.2105L134.56 47.5705C136.11 48.4205 137.2 49.3505 137.82 50.3505C138.45 51.3505 138.76 52.4205 138.76 53.5505V53.6905C138.54 55.2205 138.28 56.2605 137.96 56.8005C137.44 57.7105 136.71 58.4405 135.76 58.9905C134.81 59.5305 133.73 59.8005 132.53 59.8005C131.86 59.7805 131.31 59.7105 130.89 59.6005L130.14 59.3905Z" fill="white"/>
<path d="M140.803 57.5205C140.803 57.5205 143.723 50.9805 149.573 37.8905C149.613 37.7905 149.823 37.7405 150.213 37.7405C150.603 37.7405 150.823 37.7905 150.883 37.8905L159.913 57.5205C160.263 58.3205 160.613 58.8005 160.943 58.9605C161.063 59.0205 161.113 59.1405 161.113 59.3005C161.113 59.4705 161.063 59.5505 160.943 59.5505H156.113C156.003 59.5505 155.943 59.4705 155.943 59.3205C155.943 59.1605 155.963 59.0705 156.003 59.0305C156.043 59.0005 156.103 58.9705 156.183 58.9405C156.253 58.9105 156.313 58.8705 156.353 58.8305C156.683 58.5005 156.853 58.1905 156.853 57.8905C156.853 57.6005 156.823 57.3605 156.753 57.1705L154.833 52.6105H145.223L143.333 57.1705C143.273 57.3605 143.243 57.5105 143.243 57.6105V57.7505C143.243 57.7605 143.243 57.7805 143.243 57.7805C143.243 58.1505 143.403 58.5005 143.743 58.8305C143.783 58.8605 143.863 58.9105 143.973 58.9705C144.093 59.0305 144.153 59.1405 144.153 59.3005C144.153 59.4705 144.093 59.5505 143.973 59.5505H139.773C139.653 59.5505 139.603 59.4705 139.603 59.3205C139.603 59.1605 139.623 59.0705 139.663 59.0305C139.703 59.0005 139.763 58.9705 139.833 58.9405C140.123 58.8205 140.453 58.3405 140.803 57.5205ZM146.183 50.4905C146.153 50.5205 146.153 50.5605 146.163 50.6005C146.173 50.6405 146.183 50.6605 146.213 50.6605H153.823C153.853 50.6605 153.863 50.6405 153.863 50.6005C153.873 50.5605 153.873 50.5205 153.863 50.4905L150.003 42.1305H149.913L146.183 50.4905Z" fill="white"/>
<path d="M171.366 50.3505L163.486 39.7705C163.246 39.4405 162.976 39.1405 162.676 38.8805C162.366 38.6105 162.206 38.4605 162.176 38.4405C162.146 38.4105 162.066 38.3705 161.956 38.3205C161.836 38.2605 161.786 38.1605 161.786 37.9905C161.786 37.8205 161.836 37.7405 161.956 37.7405H166.786C166.896 37.7405 166.956 37.8205 166.956 37.9705C166.956 38.1205 166.936 38.2105 166.896 38.2405C166.846 38.2705 166.796 38.3105 166.736 38.3505C166.406 38.4805 166.256 38.7005 166.296 38.9905C166.346 39.2805 166.546 39.6505 166.896 40.1005L172.766 47.9605H172.876L178.906 40.1005C179.476 39.3805 179.756 38.9505 179.736 38.8005C179.716 38.6605 179.676 38.5505 179.616 38.4905C179.546 38.4205 179.456 38.3705 179.346 38.3205C179.226 38.2605 179.176 38.1605 179.176 37.9905C179.176 37.8205 179.226 37.7405 179.346 37.7405H183.546C183.666 37.7405 183.726 37.8205 183.726 37.9705C183.726 38.1205 183.696 38.2105 183.656 38.2405C183.616 38.2705 183.556 38.3005 183.486 38.3305C183.416 38.3605 183.366 38.3905 183.336 38.4205C183.306 38.4505 183.246 38.5005 183.126 38.5805L182.766 38.8605C182.416 39.1405 182.116 39.4505 181.896 39.7705L174.116 49.8605V57.2205C174.116 57.8705 174.326 58.4105 174.756 58.8305C174.786 58.8605 174.856 58.9105 174.976 58.9705C175.086 59.0305 175.146 59.1405 175.146 59.3005C175.146 59.4705 175.086 59.5505 174.976 59.5505H170.486C170.366 59.5505 170.316 59.4705 170.316 59.3205C170.316 59.1605 170.336 59.0705 170.376 59.0305C170.416 59.0005 170.476 58.9705 170.536 58.9405C170.606 58.9105 170.696 58.8405 170.816 58.7205C170.926 58.6105 171.046 58.4105 171.176 58.1105C171.296 57.8205 171.366 57.5305 171.366 57.2205V50.3505Z" fill="white"/>
<path d="M185.582 57.5205C185.582 57.5205 188.502 50.9805 194.352 37.8905C194.392 37.7905 194.602 37.7405 194.992 37.7405C195.382 37.7405 195.602 37.7905 195.662 37.8905L204.692 57.5205C205.042 58.3205 205.392 58.8005 205.722 58.9605C205.842 59.0205 205.892 59.1405 205.892 59.3005C205.892 59.4705 205.842 59.5505 205.722 59.5505H200.892C200.782 59.5505 200.722 59.4705 200.722 59.3205C200.722 59.1605 200.742 59.0705 200.782 59.0305C200.822 59.0005 200.882 58.9705 200.962 58.9405C201.032 58.9105 201.092 58.8705 201.132 58.8305C201.462 58.5005 201.632 58.1905 201.632 57.8905C201.632 57.6005 201.602 57.3605 201.532 57.1705L199.612 52.6105H190.002L188.112 57.1705C188.052 57.3605 188.022 57.5105 188.022 57.6105V57.7505C188.022 57.7605 188.022 57.7805 188.022 57.7805C188.022 58.1505 188.182 58.5005 188.522 58.8305C188.562 58.8605 188.642 58.9105 188.752 58.9705C188.872 59.0305 188.932 59.1405 188.932 59.3005C188.932 59.4705 188.872 59.5505 188.752 59.5505H184.552C184.432 59.5505 184.382 59.4705 184.382 59.3205C184.382 59.1605 184.402 59.0705 184.442 59.0305C184.482 59.0005 184.542 58.9705 184.612 58.9405C184.902 58.8205 185.232 58.3405 185.582 57.5205ZM190.962 50.4905C190.932 50.5205 190.932 50.5605 190.942 50.6005C190.952 50.6405 190.962 50.6605 190.992 50.6605H198.602C198.632 50.6605 198.642 50.6405 198.642 50.6005C198.652 50.5605 198.652 50.5205 198.642 50.4905L194.782 42.1305H194.692L190.962 50.4905Z" fill="white"/>
</svg>
